<svg xmlns="http://www.w3.org/2000/svg" viewBox="0 0 160 160" role="img" aria-label="CAD Skills">
  <defs>
    <radialGradient id="steel" cx="36%" cy="28%" r="78%">
      <stop offset="0" stop-color="#f5fbff"/>
      <stop offset="0.38" stop-color="#bcc9d0"/>
      <stop offset="0.68" stop-color="#7f8f98"/>
      <stop offset="1" stop-color="#d6dee2"/>
    </radialGradient>
    <radialGradient id="inner" cx="37%" cy="28%" r="70%">
      <stop offset="0" stop-color="#eef5f8"/>
      <stop offset="0.52" stop-color="#aab8bf"/>
      <stop offset="0.78" stop-color="#74838d"/>
      <stop offset="1" stop-color="#e5ecef"/>
    </radialGradient>
    <radialGradient id="hole" cx="54%" cy="55%" r="60%">
      <stop offset="0" stop-color="#020406"/>
      <stop offset="0.62" stop-color="#101417"/>
      <stop offset="1" stop-color="#4d5a60"/>
    </radialGradient>
    <filter id="shadow" x="-18%" y="-18%" width="136%" height="136%">
      <feDropShadow dx="0" dy="3" stdDeviation="2.2" flood-color="#29333a" flood-opacity="0.34"/>
    </filter>
  </defs>
  <g filter="url(#shadow)">
    <g fill="url(#steel)" stroke="#66737c" stroke-width="3" stroke-linejoin="round">
      <rect x="69" y="6" width="22" height="35" rx="5" transform="rotate(0 80 80)"/>
      <rect x="69" y="6" width="22" height="35" rx="5" transform="rotate(30 80 80)"/>
      <rect x="69" y="6" width="22" height="35" rx="5" transform="rotate(60 80 80)"/>
      <rect x="69" y="6" width="22" height="35" rx="5" transform="rotate(90 80 80)"/>
      <rect x="69" y="6" width="22" height="35" rx="5" transform="rotate(120 80 80)"/>
      <rect x="69" y="6" width="22" height="35" rx="5" transform="rotate(150 80 80)"/>
      <rect x="69" y="6" width="22" height="35" rx="5" transform="rotate(180 80 80)"/>
      <rect x="69" y="6" width="22" height="35" rx="5" transform="rotate(210 80 80)"/>
      <rect x="69" y="6" width="22" height="35" rx="5" transform="rotate(240 80 80)"/>
      <rect x="69" y="6" width="22" height="35" rx="5" transform="rotate(270 80 80)"/>
      <rect x="69" y="6" width="22" height="35" rx="5" transform="rotate(300 80 80)"/>
      <rect x="69" y="6" width="22" height="35" rx="5" transform="rotate(330 80 80)"/>
    </g>
    <circle cx="80" cy="80" r="58" fill="url(#steel)" stroke="#66737c" stroke-width="3"/>
    <circle cx="80" cy="80" r="43" fill="url(#inner)" stroke="#51616b" stroke-width="3"/>
    <circle cx="80" cy="80" r="27" fill="#dfe7eb" stroke="#7e8b93" stroke-width="3"/>
    <circle cx="80" cy="80" r="15" fill="url(#hole)"/>
    <path d="M38 71c5-22 22-38 43-38 17 0 32 10 39 25-9-9-22-15-37-15-21 0-39 12-45 28Z" fill="#ffffff" opacity="0.42"/>
    <path d="M105 104c-8 8-18 12-29 12-15 0-28-8-36-20 10 7 23 10 37 7 12-2 22-8 29-16 4 6 4 12-1 17Z" fill="#1e2930" opacity="0.18"/>
  </g>
</svg>
